<?xml version="1.0" encoding="utf-8"?>
<!-- Generator: Adobe Illustrator 15.1.0, SVG Export Plug-In . SVG Version: 6.00 Build 0)  -->
<!DOCTYPE svg PUBLIC "-//W3C//DTD SVG 1.1//EN" "http://www.w3.org/Graphics/SVG/1.1/DTD/svg11.dtd">
<svg version="1.1" id="Layer_1" xmlns="http://www.w3.org/2000/svg" xmlns:xlink="http://www.w3.org/1999/xlink" x="0px" y="0px"
	 width="659.871px" height="2566.502px" viewBox="0 0 659.871 2566.502" enable-background="new 0 0 659.871 2566.502"
	 xml:space="preserve">
<g id="Layer_2">
</g>
<g id="Layer_1_1_">
	
		<line fill="none" stroke="#BCBEC0" stroke-width="0.5" stroke-miterlimit="10" x1="117.028" y1="151.353" x2="117.029" y2="2801.963"/>
	
		<line fill="none" stroke="#BCBEC0" stroke-width="0.5" stroke-miterlimit="10" x1="178.704" y1="336.381" x2="178.705" y2="2802.993"/>
	
		<line fill="none" stroke="#BCBEC0" stroke-width="0.5" stroke-miterlimit="10" x1="552.951" y1="274.705" x2="552.951" y2="2802.317"/>
	<line fill="none" stroke="#BCBEC0" stroke-width="0.5" stroke-miterlimit="10" x1="614.625" y1="398.056" x2="614.625" y2="2804"/>
	<text transform="matrix(1 0 0 1 117.0298 43.7153)" font-family="'LucidaGrande-Bold'" font-size="16.5076">LOCAL</text>
	<text transform="matrix(1 0 0 1 552.9507 43.7153)" font-family="'LucidaGrande-Bold'" font-size="16.5076">REMOTE</text>
	<text transform="matrix(1 0 0 1 132.042 88.9927)" fill="#ED1C24" font-family="'LucidaGrande'" font-size="18.5028">master</text>
	<text transform="matrix(1 0 0 1 480.187 247.3442)" fill="#ED1C24" font-family="'LucidaGrande'" font-size="18.5028">origin master</text>
	<text transform="matrix(1 0 0 1 186.0215 323.2993)" fill="#21409A" font-family="'LucidaGrande'" font-size="18.5028">develop</text>
	<text transform="matrix(1 0 0 1 524.4448 379.6958)" fill="#21409A" font-family="'LucidaGrande'" font-size="18.5028">origin develop</text>
	<path fill="none" stroke="#000000" stroke-width="0.5" stroke-miterlimit="10" d="M117.028,1132.332"/>
	<path fill="#808285" stroke="#6D6E71" stroke-width="0.5" stroke-miterlimit="10" d="M60,727.859"/>
	<path fill="#ED1C24" d="M124.346,84.756c0,4.043-3.276,7.32-7.317,7.32c-4.043,0-7.318-3.276-7.318-7.32
		c0-4.04,3.275-7.316,7.318-7.316C121.07,77.44,124.346,80.716,124.346,84.756z"/>
	<circle fill="#ED1C24" cx="117.029" cy="213.432" r="7.317"/>
	<circle fill="#ED1C24" cx="117.029" cy="1382.332" r="7.317"/>
	<path fill="#ED1C24" stroke="#000000" stroke-width="0.5" stroke-miterlimit="10" d="M560.267,275.108
		c0,4.042-3.275,7.32-7.316,7.32c-4.043,0-7.318-3.277-7.318-7.32c0-4.04,3.275-7.316,7.318-7.316
		C556.99,267.792,560.267,271.068,560.267,275.108z"/>
	<path fill="#ED1C24" stroke="#000000" stroke-width="0.5" stroke-miterlimit="10" d="M560.267,2520.711
		c0,4.043-3.275,7.32-7.316,7.32c-4.043,0-7.318-3.277-7.318-7.32c0-4.041,3.275-7.314,7.318-7.314
		C556.99,2513.397,560.267,2516.67,560.267,2520.711z"/>
	<circle fill="#ED1C24" stroke="#000000" stroke-width="0.5" stroke-miterlimit="10" cx="552.951" cy="1444.007" r="7.317"/>
	<path fill="#21409A" stroke="#000000" stroke-width="0.5" stroke-miterlimit="10" d="M621.943,398.46
		c0,4.042-3.275,7.32-7.318,7.32c-4.041,0-7.318-3.277-7.318-7.32c0-4.04,3.277-7.317,7.318-7.317
		C618.667,391.143,621.943,394.42,621.943,398.46z"/>
	<circle fill="#21409A" cx="178.705" cy="336.784" r="7.317"/>
	<path fill="#21409A" d="M186.022,1097.303c0,4.044-3.276,7.32-7.317,7.32c-4.043,0-7.317-3.276-7.317-7.32
		c0-4.04,3.274-7.314,7.317-7.314C182.746,1089.987,186.022,1093.263,186.022,1097.303z"/>
	<circle fill="#21409A" cx="178.705" cy="1382.332" r="7.317"/>
	<path fill="#21409A" d="M186.022,2459.034c0,4.045-3.276,7.32-7.317,7.32c-4.043,0-7.317-3.275-7.317-7.32
		c0-4.039,3.274-7.316,7.317-7.316C182.746,2451.717,186.022,2454.995,186.022,2459.034z"/>
	<path fill="#21409A" stroke="#000000" stroke-width="0.5" stroke-miterlimit="10" d="M621.943,2520.711
		c0,4.043-3.275,7.32-7.318,7.32c-4.041,0-7.318-3.277-7.318-7.32c0-4.041,3.277-7.314,7.318-7.314
		C618.667,2513.397,621.943,2516.67,621.943,2520.711z"/>
	<circle fill="#21409A" stroke="#000000" stroke-width="0.5" stroke-miterlimit="10" cx="614.625" cy="1444.007" r="7.317"/>
	<circle fill="#21409A" stroke="#000000" stroke-width="0.5" stroke-miterlimit="10" cx="614.625" cy="1158.979" r="7.318"/>
	<circle fill="#009444" cx="240.381" cy="548.46" r="7.317"/>
	<circle fill="#009444" cx="240.381" cy="610.136" r="7.317"/>
	<circle fill="#009444" cx="240.381" cy="671.812" r="7.317"/>
	<circle fill="#009444" cx="240.381" cy="733.488" r="7.317"/>
	<circle fill="#009444" cx="240.381" cy="795.164" r="7.317"/>
	<text transform="matrix(1 0 0 1 257.6543 555.7798)" fill="#009444" font-family="'LucidaGrande'" font-size="18.5028">myfeature</text>
	<circle fill="#92278F" cx="302.057" cy="1258.979" r="7.316"/>
	<circle fill="#92278F" cx="302.057" cy="1320.655" r="7.316"/>
	<text transform="matrix(1 0 0 1 322.4141 1265.271)" fill="#92278F" font-family="'LucidaGrande'" font-size="18.5028">release-1.2</text>
	<circle fill="#F15A29" cx="363.732" cy="2024.007" r="7.317"/>
	<path fill="#F15A29" d="M371.048,2085.684c0,4.043-3.273,7.318-7.314,7.318c-4.043,0-7.318-3.275-7.318-7.318
		c0-4.039,3.275-7.316,7.318-7.316C367.775,2078.366,371.048,2081.645,371.048,2085.684z"/>
	<text transform="matrix(1 0 0 1 372.8608 2031.1597)" fill="#F15A29" font-family="'LucidaGrande'" font-size="18.5028">hotfix-1.2.1</text>
	<polygon points="123.065,196.966 110.994,196.966 117.029,205.915 	"/>
	<line fill="none" stroke="#000000" stroke-miterlimit="10" x1="117.028" y1="92.075" x2="117.028" y2="196.965"/>
	<polygon points="538.496,267.167 537.267,279.175 546.785,274.081 	"/>
	<line fill="none" stroke="#000000" stroke-miterlimit="10" x1="117.029" y1="213.434" x2="537.89" y2="273.173"/>
	<polygon points="175.159,320.74 164.411,326.23 173.855,331.455 	"/>
	<line fill="none" stroke="#000000" stroke-miterlimit="10" x1="117.542" y1="221.204" x2="169.785" y2="323.487"/>
	<polygon points="242.059,529.895 230.498,533.365 238.852,540.2 	"/>
	<line fill="none" stroke="#000000" stroke-miterlimit="10" x1="179.877" y1="343.82" x2="236.277" y2="531.629"/>
	<polygon points="246.416,593.87 234.346,593.87 240.381,602.818 	"/>
	<line fill="none" stroke="#000000" stroke-miterlimit="10" x1="240.38" y1="556.14" x2="240.38" y2="593.87"/>
	<polygon points="246.416,655.186 234.346,655.186 240.381,664.135 	"/>
	<line fill="none" stroke="#000000" stroke-miterlimit="10" x1="240.38" y1="617.455" x2="240.38" y2="655.186"/>
	<polygon points="246.416,717.223 234.346,717.223 240.381,726.171 	"/>
	<line fill="none" stroke="#000000" stroke-miterlimit="10" x1="240.38" y1="679.492" x2="240.38" y2="717.223"/>
	<polygon points="246.415,778.537 234.345,778.537 240.38,787.485 	"/>
	<line fill="none" stroke="#000000" stroke-miterlimit="10" x1="240.379" y1="740.807" x2="240.379" y2="778.537"/>
	<polygon points="189.284,1081.808 177.425,1079.567 181.693,1089.48 	"/>
	<line fill="none" stroke="#000000" stroke-miterlimit="10" x1="236.035" y1="801.712" x2="183.353" y2="1080.688"/>
	<polygon points="298.853,1241.963 289.387,1249.452 299.671,1252.725 	"/>
	<line fill="none" stroke="#000000" stroke-miterlimit="10" x1="182.477" y1="1104.041" x2="294.393" y2="1245.493"/>
	<polygon points="308.092,1304.03 296.021,1304.03 302.057,1312.979 	"/>
	<line fill="none" stroke="#000000" stroke-miterlimit="10" x1="302.056" y1="1266.299" x2="302.056" y2="1304.03"/>
	<polygon points="196.727,1380.922 191.312,1370.133 186.022,1379.542 	"/>
	<line fill="none" stroke="#000000" stroke-miterlimit="10" x1="295.715" y1="1324.489" x2="194.021" y2="1375.528"/>
	<polygon points="133.81,1382.569 130.137,1371.073 123.45,1379.543 	"/>
	<line fill="none" stroke="#000000" stroke-miterlimit="10" x1="295.812" y1="1324.489" x2="131.974" y2="1376.821"/>
	<polygon points="599.013,1150.783 597.794,1162.792 607.306,1157.692 	"/>
	<line fill="none" stroke="#000000" stroke-miterlimit="10" x1="178.705" y1="1097.305" x2="598.412" y2="1156.79"/>
	<polygon points="537.048,1435.174 535.82,1447.182 545.337,1442.088 	"/>
	<line fill="none" stroke="#000000" stroke-miterlimit="10" x1="117.029" y1="1382.333" x2="536.443" y2="1441.18"/>
	<polygon points="599.388,1435.174 598.162,1447.182 607.677,1442.086 	"/>
	<line fill="none" stroke="#000000" stroke-miterlimit="10" x1="178.705" y1="1382.333" x2="598.783" y2="1441.18"/>
	<polygon points="537.343,2512.645 536.115,2524.651 545.632,2519.557 	"/>
	<line fill="none" stroke="#000000" stroke-miterlimit="10" x1="117.029" y1="2459.036" x2="536.697" y2="2518.954"/>
	<polygon points="598.126,2512.643 596.9,2524.649 606.416,2519.555 	"/>
	<line fill="none" stroke="#000000" stroke-miterlimit="10" x1="178.705" y1="2459.036" x2="597.521" y2="2518.647"/>
	<polygon points="361.57,2007.495 350.339,2011.911 359.228,2018.034 	"/>
	<line fill="none" stroke="#000000" stroke-miterlimit="10" x1="117.029" y1="1382.333" x2="355.955" y2="2009.704"/>
	<polygon points="369.486,2069.059 357.416,2069.059 363.451,2078.006 	"/>
	<line fill="none" stroke="#000000" stroke-miterlimit="10" x1="363.449" y1="2031.327" x2="363.449" y2="2069.059"/>
	<polygon points="369.486,2131.059 357.416,2131.059 363.451,2140.006 	"/>
	<line fill="none" stroke="#000000" stroke-miterlimit="10" x1="363.449" y1="2093.327" x2="363.449" y2="2131.059"/>
	<polygon points="131.861,2449.214 122.33,2441.807 121.603,2452.579 	"/>
	<line fill="none" stroke="#000000" stroke-miterlimit="10" x1="361.57" y1="2152.002" x2="127.14" y2="2445.4"/>
	<polygon points="192.086,2448.622 181.766,2442.362 183.407,2451.292 	"/>
	<line fill="none" stroke="#000000" stroke-miterlimit="10" x1="362.748" y1="2155.675" x2="186.925" y2="2445.491"/>
	<polygon fill="#808285" stroke="#6D6E71" stroke-miterlimit="10" points="78.106,284.96 66.036,284.96 72.071,293.908 	"/>
	<line fill="none" stroke="#6D6E71" stroke-miterlimit="10" x1="72.069" y1="81.104" x2="72.07" y2="284.928"/>
	<text transform="matrix(-0.0017 1 -1 -0.0017 85.3589 82.6079)" fill="#808285" font-family="'LucidaGrande'" font-size="16">time</text>
	
		<text transform="matrix(-0.0017 1 -1 -0.0017 85.3589 82.6079)" fill="none" stroke="#6D6E71" stroke-miterlimit="10" font-family="'LucidaGrande'" font-size="16">time</text>
	<polygon points="598.496,390.168 597.267,402.176 606.785,397.081 	"/>
	<line fill="none" stroke="#000000" stroke-miterlimit="10" x1="178.705" y1="336.786" x2="597.89" y2="396.174"/>
	<circle fill="#F15A29" cx="363.732" cy="2147.359" r="7.317"/>
	<path fill="#ED1C24" d="M124.346,2459.034c0,4.045-3.276,7.32-7.317,7.32c-4.043,0-7.318-3.275-7.318-7.32
		c0-4.039,3.275-7.316,7.318-7.316C121.07,2451.717,124.346,2454.995,124.346,2459.034z"/>
</g>
</svg>
